<svg width="20" height="20" viewBox="0 0 20 20" fill="none" xmlns="http://www.w3.org/2000/svg">
<path d="M13.9143 4.58338C12.8959 4.53338 11.6818 5.00838 10.6726 6.38338L10.0018 7.29171L9.33009 6.38338C8.32009 5.00838 7.10509 4.53338 6.08676 4.58338C5.05093 4.64171 4.12926 5.23338 3.66176 6.17504C3.20176 7.10838 3.13426 8.49171 4.06093 10.1917C4.95593 11.8334 6.77509 13.75 10.0018 15.7C13.2268 13.75 15.0451 11.8334 15.9401 10.1917C16.8659 8.49171 16.7984 7.10838 16.3376 6.17504C15.8701 5.23338 14.9493 4.64171 13.9143 4.58338ZM17.4034 10.9917C16.2776 13.0584 14.0693 15.2584 10.4209 17.3834L10.0018 17.6334L9.58176 17.3834C5.93259 15.2584 3.72426 13.0584 2.59676 10.9917C1.46343 8.90838 1.42176 6.94171 2.16843 5.43338C2.90759 3.94171 4.37426 3.00838 6.00259 2.92504C7.37843 2.85004 8.80926 3.39171 10.0009 4.60004C11.1918 3.39171 12.6226 2.85004 13.9976 2.92504C15.6259 3.00838 17.0926 3.94171 17.8318 5.43338C18.5784 6.94171 18.5368 8.90838 17.4034 10.9917Z" fill="#536471"/>
</svg>
