<svg width="20" height="20" viewBox="0 0 20 20" fill="none" xmlns="http://www.w3.org/2000/svg">
<path d="M3.74997 3.23328L7.44331 6.68328L6.30664 7.89994L4.58331 6.29161V13.3333C4.58331 14.2499 5.32997 14.9999 6.24997 14.9999H10.8333V16.6666H6.24997C4.40914 16.6666 2.91664 15.1749 2.91664 13.3333V6.29161L1.19331 7.89994L0.0566406 6.68328L3.74997 3.23328ZM13.75 4.99994H9.16664V3.33328H13.75C15.5908 3.33328 17.0833 4.82494 17.0833 6.66661V13.7083L18.8066 12.0999L19.9433 13.3166L16.25 16.7666L12.5566 13.3166L13.6933 12.0999L15.4166 13.7083V6.66661C15.4166 5.74994 14.67 4.99994 13.75 4.99994Z" fill="#536471"/>
</svg>
