<svg width="18" height="18" viewBox="0 0 18 18" fill="none" xmlns="http://www.w3.org/2000/svg">
<path d="M0.459229 7.33329C0.459229 3.64996 3.44589 0.666626 7.13006 0.666626H10.7684C14.5101 0.666626 17.5426 3.69996 17.5426 7.44163C17.5426 9.90829 16.2034 12.175 14.0459 13.3666L7.33423 17.0833V14.0083H7.2784C3.53673 14.0916 0.459229 11.0833 0.459229 7.33329ZM7.13006 2.33329C4.36589 2.33329 2.1259 4.57496 2.1259 7.33329C2.1259 10.1416 4.43423 12.4 7.2409 12.3416L7.53339 12.3333H9.0009V14.25L13.2401 11.9083C14.8659 11.0083 15.8759 9.29996 15.8759 7.44163C15.8759 4.61663 13.5892 2.33329 10.7684 2.33329H7.13006Z" fill="#536471"/>
</svg>
